<svg xmlns="http://www.w3.org/2000/svg" width="15" height="20" viewBox="0 0 15 20">
  <g fill="none" fill-rule="evenodd" transform="translate(-2 -2)">
    <rect width="19" height="24"/>
    <path fill="#2992B6" d="M10.8918786,3.92913781 C11.1657673,3.847837 11.3214088,3.56177858 11.2415667,3.28876844 C11.0131577,2.52996086 10.2966002,2 9.49918999,2 C8.72300361,2 8.03070195,2.49081602 7.78005843,3.22151962 C7.68707777,3.49051491 7.83261272,3.7825956 8.10144811,3.87292984 C8.37331547,3.96727893 8.66741734,3.82274415 8.75938734,3.55475258 C8.86752789,3.23958647 9.1656724,3.02880658 9.49918999,3.02880658 C9.84281417,3.02880658 10.1510653,3.2566496 10.2480886,3.58185286 C10.3147921,3.80568102 10.5209666,3.9502158 10.7443223,3.9502158 C10.792834,3.9502158 10.8423563,3.9431898 10.8918786,3.92913781 L10.8918786,3.92913781 Z M12.0217957,19.7577035 C12.0531262,19.4746562 11.8479623,19.2207167 11.563967,19.1896015 C11.288057,19.1534678 11.0242749,19.3612366 10.9939552,19.6442839 C10.9100704,20.4020877 10.2672911,20.9711934 9.50020065,20.9711934 C8.72502493,20.9711934 8.0842669,20.3950617 8.00644613,19.633243 C7.97713701,19.349192 7.72245085,19.1454381 7.43946623,19.1735421 C7.15547096,19.2016461 6.94727513,19.4535782 6.97658425,19.7346181 C7.10594865,21.0263977 8.19139679,22 9.50020065,22 C10.7958659,22 11.8813141,21.0364348 12.0217957,19.7577035 L12.0217957,19.7577035 Z M9.49918999,17.5806484 C9.51738185,17.5846633 9.52344581,17.5806484 9.53658438,17.5806484 C13.3498021,17.5806484 15.3872914,16.4173442 15.9542712,16.035933 C16.0058149,15.1436314 15.8693759,14.6076483 15.4913893,14.1650105 C15.4166005,14.0786912 15.337769,14.0084312 15.2589376,13.9361638 C14.7293521,13.4463515 14.1290205,12.8943089 13.5741685,9.39837398 C13.1466596,6.71042859 11.1981084,5.51902038 9.43147581,5.51902038 L9.36578295,5.51902038 C7.76793052,5.54612065 5.7769316,6.57392352 5.42926479,9.38231456 C5.02702237,12.6082505 4.45903181,13.3259059 3.75864488,13.9301415 C3.67172818,14.0044163 3.58784345,14.0736726 3.51002268,14.1660143 C3.13102543,14.608652 2.99458642,15.1436314 3.0471407,16.035933 C3.60704598,16.4133293 5.64453523,17.5806484 9.46381691,17.5806484 L9.49918999,17.5806484 Z M9.53658438,18.6084513 L9.46381691,18.6084513 C4.50451148,18.6084513 2.30228476,16.7766737 2.2093041,16.698384 C2.10823817,16.6110609 2.04254531,16.4866004 2.03142806,16.3531065 C1.95158597,15.432701 1.97280981,14.3747867 2.72170839,13.4985446 C2.83288092,13.3670581 2.95416004,13.2626719 3.08049246,13.1522634 C3.49789477,12.7939376 4.01636302,12.347285 4.40142423,9.25584663 C4.80467731,6.01385125 7.1766948,4.5273512 9.34860174,4.4912175 C11.5659884,4.45207267 14.0693916,5.90745759 14.5969557,9.23777979 C15.0952108,12.3814112 15.5560715,12.8069858 15.9643778,13.1823748 C16.0725184,13.2807387 16.1766163,13.3801064 16.2797036,13.4985446 C17.0275915,14.3747867 17.0478047,15.4316973 16.9689732,16.3521028 C16.957856,16.4886078 16.8921631,16.6140721 16.7870546,16.7023989 C16.6940739,16.7796848 14.4504101,18.6084513 9.53658438,18.6084513 L9.53658438,18.6084513 Z"/>
  </g>
</svg>
